Coordinates
version=1
nRows=14
nColumns=33
inDegrees=yes

Units are S.I. units (second, meters, Newtons, ...)
Angles are in degrees.

endheader
time	ground_thorax_rot_x	ground_thorax_rot_y	ground_thorax_rot_z	ground_thorax_tx	ground_thorax_ty	ground_thorax_tz	clav_prot_r	clav_elev_r	scapula_abduction_r	scapula_elevation_r	scapula_upward_rot_r	scapula_winging_r	shoulder_elv_r	plane_of_elev_r	axial_rot_r	elbow_flexion_r	pro_sup_r	wrist_flex_r	wrist_dev_r	clav_prot_l	clav_elev_l	scapula_abduction_l	scapula_elevation_l	scapula_upward_rot_l	scapula_winging_l	shoulder_elv_l	plane_of_elev_l	axial_rot_l	elbow_flexion_l	pro_sup_l	wrist_flex_l	wrist_dev_l
      5.56000000	    -14.03448040	    -39.58669487	     63.27037011	     40.42489799	    808.33868930	    -44.26033695	     24.33032689	    -45.00000000	     43.74081491	    -45.00000000	    -30.31589130	   3481.82217036	   -462.61521529	    143.13132438	   -179.99999979	   2511.98090128	     54.58132806	     24.65633200	     20.28618099	     -3.76565335	     32.69694290	    -27.57060939	    -45.00000000	    -45.00000000	   2249.06612606	  -7123.01277028	     26.92348313	     48.18376841	   2869.21167708	     41.99881377	     14.51620358	    -16.14795254
      5.57000000	    -13.67969096	    -39.70463980	     63.89105261	     43.62713304	    806.11111907	    -43.93248203	     24.36281319	    -45.00000000	     43.53688199	    -45.00000000	    -30.21381595	   3481.70007975	   -462.83816764	    143.06284054	   -179.99999979	   2511.75441145	     54.99221206	     24.16257397	     19.87846536	     -3.72624288	     32.63511083	    -27.53316684	    -45.00000000	    -45.00000000	   2248.90665457	  -7123.16040340	     26.78277345	     47.78549102	   2869.20108831	     42.13217760	     14.32369077	    -15.94212561
      5.58000000	    -13.09820077	    -39.94305064	     64.92110450	     46.78628760	    803.91361824	    -43.60102314	     24.32619329	    -45.00000000	     43.38435402	    -45.00000000	    -30.51357383	   3481.46885330	   -463.08332589	    143.00977258	   -179.99999979	   2511.63918755	     55.44554206	     23.75044889	     19.42482163	     -3.88339935	     32.55605839	    -27.31469009	    -45.00000000	    -45.00000000	   2248.71478001	  -7123.06503469	     26.53665991	     47.17595458	   2869.15353626	     42.27402361	     14.12118217	    -15.74126881
      5.59000000	    -12.47678325	    -40.11739869	     65.81238762	     49.89454965	    801.75887500	    -43.27781499	     24.58811962	    -45.00000000	     43.39496134	    -45.00000000	    -30.81761386	   3481.31389107	   -463.26462027	    142.89966280	   -179.99999979	   2511.36424224	     56.00148596	     23.62859783	     19.25718386	     -3.94156332	     32.62623314	    -27.04288376	    -45.00000000	    -45.00000000	   2248.83207031	  -7123.31849949	     26.61705013	     46.51972215	   2869.24344538	     42.40994033	     14.01518741	    -15.73250810
      5.60000000	    -12.03319236	    -40.28412103	     66.64110103	     52.94551746	    799.66033475	    -42.97208736	     24.48291761	    -45.00000000	     43.13818282	    -45.00000000	    -31.10354500	   3481.23815382	   -463.48320850	    142.94752570	   -179.99999979	   2511.33877956	     56.50068993	     23.17689514	     18.67274378	     -4.01776925	     32.41666402	    -27.00696968	    -45.00000000	    -45.00000000	   2248.61678170	  -7123.22704323	     26.25236903	     45.86860587	   2869.19634814	     42.59675650	     13.79473307	    -15.58943629
      5.61000000	    -11.57042117	    -40.37468751	     67.29601239	     55.93412087	    797.62928920	    -42.69221161	     24.73205502	    -45.00000000	     43.03315300	    -45.00000000	    -31.48737780	   3481.21890846	   -463.58826787	    142.85561303	   -179.99999979	   2511.15537885	     57.02540799	     23.08920948	     18.54049889	     -4.01783101	     32.55509256	    -26.73171691	    -45.00000000	    -45.00000000	   2248.66887593	  -7123.46113535	     26.39589312	     45.29867771	   2869.23377992	     42.79374177	     13.62439544	    -15.55223943
      5.62000000	    -11.07611554	    -40.48505929	     68.02903135	     58.85222347	    795.67772328	    -42.44512003	     24.79367877	    -45.00000000	     42.92260269	    -45.00000000	    -31.79045585	   3481.15840303	   -463.73641665	    142.80754176	   -179.99999979	   2511.03464977	     57.47575565	     22.87570981	     18.25659810	     -4.04613502	     32.41862265	    -26.57277788	    -45.00000000	    -45.00000000	   2248.62341789	  -7123.53627498	     26.23774760	     44.73720900	   2869.28630213	     43.01953480	     13.48726784	    -15.58112321
      5.63000000	    -10.82543896	    -40.57024936	     68.60164432	     61.68393143	    793.83359221	    -42.22994199	     24.81533896	    -45.00000000	     42.59091739	    -45.00000000	    -32.18075781	   3481.26529893	   -463.90862586	    142.93997775	   -179.99999979	   2511.06512655	     57.83143350	     22.43301139	     17.77958115	     -4.11105778	     32.34508651	    -26.57914419	    -45.00000000	    -45.00000000	   2248.41511983	  -7123.49524653	     25.92258534	     44.02856201	   2869.31487756	     43.26809160	     13.12982453	    -15.46419423
      5.64000000	    -10.43676467	    -40.59255889	     69.16825046	     64.41214772	    792.15443509	    -42.02155661	     25.02770637	    -45.00000000	     42.46275850	    -45.00000000	    -32.64618444	   3481.35063328	   -463.92443497	    142.91533012	   -179.99999979	   2510.97457195	     58.27529629	     22.41212485	     17.65324826	     -4.04355131	     32.40448152	    -26.30267850	    -45.00000000	    -45.00000000	   2248.44218670	  -7123.64182900	     26.06198232	     43.45580363	   2869.36535767	     43.53840271	     12.98574550	    -15.47829705
      5.65000000	    -10.14189907	    -40.65421842	     69.69336580	     67.03076393	    790.60419000	    -41.83980652	     25.09248025	    -45.00000000	     42.25858562	    -45.00000000	    -33.06185020	   3481.47158410	   -463.99684595	    142.98526781	   -179.99999979	   2511.01416871	     58.73092554	     22.19027419	     17.29672165	     -4.07687323	     32.26479487	    -26.27911530	    -45.00000000	    -45.00000000	   2248.33860215	  -7123.63640194	     25.80455086	     42.86148271	   2869.39787377	     43.82375033	     12.75858069	    -15.50051992
      5.66000000	    -10.25735485	    -40.55107809	     69.63723292	     69.51969097	    789.21862295	    -41.67183372	     25.20210644	    -45.00000000	     41.97458704	    -45.00000000	    -33.26436559	   3481.78335541	   -463.99645483	    143.11134739	   -179.99999979	   2511.05279296	     59.27630441	     22.12777821	     17.04941715	     -3.91734415	     32.28166456	    -26.32743106	    -45.00000000	    -45.00000000	   2248.25242705	  -7123.81587395	     25.84675076	     42.50879856	   2869.49933888	     44.12562990	     12.53653335	    -15.49877818
      5.67000000	    -10.03318403	    -40.56735301	     70.10704036	     71.87167141	    787.98218359	    -41.52552194	     25.22893386	    -45.00000000	     41.79064888	    -45.00000000	    -33.71722377	   3481.94753667	   -464.03720852	    143.23330889	   -179.99999979	   2511.13889399	     59.87936062	     21.98417040	     16.68022713	     -3.91379699	     32.17902267	    -26.20026323	    -45.00000000	    -45.00000000	   2248.03993879	  -7123.70711635	     25.64190608	     42.03015585	   2869.57507235	     44.43655631	     12.25807454	    -15.49362235
      5.68000000	     -9.75343414	    -40.58881140	     70.58743139	     74.07654006	    786.89082789	    -41.40075726	     25.44147932	    -45.00000000	     41.65353521	    -45.00000000	    -34.19646075	   3482.09558132	   -464.10045949	    143.31031716	   -179.99999979	   2511.24532636	     60.57054114	     21.96279069	     16.39456493	     -3.93417227	     32.23184501	    -26.04907650	    -45.00000000	    -45.00000000	   2248.08367398	  -7123.72318375	     25.65740861	     41.40894627	   2869.63890272	     44.76899746	     12.02374667	    -15.45924172
      5.69000000	     -9.90808066	    -40.52227185	     70.48707340	     76.13225735	    785.92943731	    -41.30038006	     25.51946826	    -45.00000000	     41.39486620	    -45.00000000	    -34.49313139	   3482.46015069	   -464.06745066	    143.43800195	   -179.99999979	   2511.41198693	     61.27118621	     21.98608040	     16.09445520	     -3.81819211	     32.12296937	    -26.12817067	    -45.00000000	    -45.00000000	   2247.90996293	  -7123.78672379	     25.58223137	     40.99518859	   2869.74252770	     45.09372507	     11.85387896	    -15.53287911
